<?xml version="1.0" encoding="utf-8"?>
<svg 
 xmlns="http://www.w3.org/2000/svg"
 xmlns:xlink="http://www.w3.org/1999/xlink"
 width="29px" height="32px">
<path fill-rule="evenodd"  fill="rgb(102, 102, 102)"
 d="M27.994,24.180 L15.222,31.994 L1.59,24.203 C0.567,23.933 0.385,23.310 0.654,22.814 C0.923,22.317 1.541,22.134 2.34,22.406 L15.168,29.631 L26.938,22.429 C27.420,22.137 28.44,22.290 28.335,22.773 C28.627,23.256 28.474,23.886 27.994,24.180 ZM27.650,16.758 L14.878,24.571 L0.715,16.781 C0.222,16.510 0.41,15.887 0.310,15.391 C0.579,14.895 1.196,14.711 1.689,14.983 L14.823,22.208 L26.594,15.7 C27.76,14.714 27.700,14.867 27.991,15.351 C28.282,15.834 28.130,16.463 27.650,16.758 ZM26.611,10.422 L15.280,17.355 C15.40,17.502 14.767,17.576 14.493,17.576 C14.244,17.576 13.995,17.515 13.769,17.392 L1.122,10.434 C0.650,10.174 0.348,9.676 0.334,9.136 C0.319,8.595 0.594,8.82 1.50,7.797 L13.20,0.323 C13.511,0.16 14.124,0.16 14.617,0.324 L26.623,7.819 C27.75,8.103 27.343,8.591 27.340,9.125 C27.337,9.660 27.65,10.144 26.611,10.422 ZM13.818,2.235 L2.878,9.66 L14.479,15.448 L24.834,9.112 L13.818,2.235 Z"/>
</svg>