<?xml version="1.0" encoding="utf-8"?>
<svg 
 xmlns="http://www.w3.org/2000/svg"
 xmlns:xlink="http://www.w3.org/1999/xlink"
 width="33px" height="28px">
<path fill-rule="evenodd"  fill="rgb(102, 102, 102)"
 d="M31.577,14.876 L24.445,20.701 C24.179,20.918 23.857,21.29 23.532,21.29 C23.321,21.29 23.109,20.983 22.909,20.888 C22.400,20.646 22.79,20.143 22.73,19.575 L22.42,16.519 L11.399,16.519 C10.597,16.519 9.944,15.861 9.944,15.51 L9.944,12.4 C9.944,11.195 10.597,10.536 11.399,10.536 L21.980,10.536 L21.951,8.31 C21.945,7.447 22.266,6.931 22.789,6.685 C23.312,6.439 23.910,6.519 24.350,6.896 L31.574,12.591 C31.936,12.902 32.123,13.316 32.117,13.754 C32.112,14.191 31.915,14.601 31.577,14.876 ZM23.866,8.951 L23.896,11.485 C23.899,11.742 23.800,11.989 23.621,12.172 C23.442,12.354 23.198,12.457 22.944,12.457 L11.848,12.457 L11.848,14.598 L22.937,14.598 C22.953,14.598 22.969,14.597 22.985,14.597 C23.507,14.597 23.932,15.21 23.937,15.547 L23.968,18.619 L29.941,13.741 L23.866,8.951 ZM19.989,7.313 C19.463,7.313 19.37,6.883 19.37,6.352 L19.37,3.992 C19.37,3.110 18.325,2.392 17.450,2.392 L3.487,2.392 C2.612,2.392 1.900,3.110 1.900,3.992 L1.900,24.478 C1.900,25.361 2.612,26.79 3.487,26.79 L17.450,26.79 C18.325,26.79 19.37,25.361 19.37,24.478 L19.37,21.469 C19.37,20.939 19.463,20.509 19.989,20.509 C20.515,20.509 20.941,20.939 20.941,21.469 L20.941,24.478 C20.941,26.420 19.375,27.999 17.450,27.999 L3.487,27.999 C1.562,27.999 0.3,26.420 0.3,24.478 L0.3,3.992 C0.3,2.51 1.562,0.471 3.487,0.471 L17.450,0.471 C19.375,0.471 20.941,2.51 20.941,3.992 L20.941,6.352 C20.941,6.883 20.515,7.313 19.989,7.313 Z"/>
</svg>