<?xml version="1.0" encoding="utf-8"?>
<svg 
 xmlns="http://www.w3.org/2000/svg"
 xmlns:xlink="http://www.w3.org/1999/xlink"
 width="30px" height="26px">
<path fill-rule="evenodd"  fill="rgb(102, 102, 102)"
 d="M26.529,25.994 L3.270,25.994 C1.467,25.994 0.0,24.533 0.0,22.738 L0.0,15.504 C0.0,14.904 0.487,14.418 1.90,14.418 C1.692,14.418 2.180,14.904 2.180,15.504 L2.180,22.738 C2.180,23.336 2.669,23.823 3.270,23.823 L26.529,23.823 C27.130,23.823 27.620,23.336 27.620,22.738 L27.620,15.504 C27.620,14.904 28.108,14.418 28.710,14.418 C29.312,14.418 29.800,14.904 29.800,15.504 L29.800,22.738 C29.800,24.533 28.333,25.994 26.529,25.994 ZM21.762,12.10 L23.942,12.10 L23.942,17.854 L21.762,17.854 L21.762,12.10 ZM16.608,9.544 L8.768,9.544 L8.768,17.914 L6.587,17.914 L6.587,0.548 L8.768,0.548 L8.768,7.373 L16.608,7.373 L16.608,0.548 L18.789,0.548 L18.789,17.914 L16.608,17.914 L16.608,9.544 Z"/>
</svg>