<?xml version="1.0" encoding="utf-8"?>
<svg 
 xmlns="http://www.w3.org/2000/svg"
 xmlns:xlink="http://www.w3.org/1999/xlink"
 width="32px" height="32px">
<path fill-rule="evenodd"  fill="rgb(102, 102, 102)"
 d="M29.141,20.195 L28.329,20.195 C27.642,20.195 27.373,20.719 27.306,20.878 C27.240,21.39 27.61,21.600 27.546,22.85 L28.121,22.659 C29.127,23.665 29.127,25.304 28.120,26.310 L26.34,28.396 C25.27,29.404 23.388,29.403 22.382,28.396 L21.808,27.824 C21.323,27.337 20.762,27.515 20.602,27.583 C20.442,27.649 19.919,27.919 19.919,28.605 L19.919,29.417 C19.919,30.841 18.760,32.0 17.337,32.0 L14.386,32.0 C12.962,32.0 11.804,30.841 11.804,29.417 L11.804,28.605 C11.804,27.919 11.281,27.649 11.120,27.583 C10.961,27.516 10.400,27.339 9.914,27.823 L9.340,28.396 C8.334,29.404 6.695,29.403 5.689,28.396 L3.602,26.310 C2.595,25.304 2.595,23.665 3.602,22.659 L4.176,22.85 C4.661,21.600 4.482,21.39 4.416,20.878 C4.350,20.719 4.79,20.195 3.394,20.195 L2.582,20.195 C1.158,20.195 0.0,19.37 0.0,17.613 L0.0,14.662 C0.0,13.239 1.158,12.80 2.582,12.80 L3.394,12.80 C4.79,12.80 4.350,11.557 4.416,11.397 C4.482,11.237 4.661,10.676 4.176,10.191 L3.602,9.617 C2.595,8.611 2.595,6.971 3.602,5.965 L5.689,3.879 C6.695,2.871 8.334,2.871 9.340,3.879 L9.914,4.453 C10.400,4.938 10.961,4.758 11.121,4.693 C11.281,4.626 11.804,4.356 11.804,3.670 L11.804,2.858 C11.804,1.435 12.962,0.276 14.386,0.276 L17.337,0.276 C18.760,0.276 19.919,1.435 19.919,2.858 L19.919,3.670 C19.919,4.356 20.441,4.626 20.602,4.693 C20.762,4.759 21.323,4.938 21.808,4.453 L22.382,3.879 C23.388,2.871 25.27,2.871 26.34,3.879 L28.120,5.965 C29.127,6.971 29.127,8.611 28.120,9.617 L27.547,10.191 C27.61,10.676 27.240,11.237 27.306,11.397 C27.373,11.557 27.642,12.80 28.329,12.80 L29.141,12.80 C30.564,12.80 31.723,13.239 31.723,14.662 L31.723,17.613 C31.723,19.37 30.564,20.195 29.141,20.195 ZM29.509,14.662 C29.509,14.459 29.344,14.294 29.141,14.294 L28.329,14.294 C26.960,14.294 25.785,13.508 25.261,12.244 C24.738,10.980 25.14,9.593 25.981,8.626 L26.555,8.52 C26.699,7.908 26.699,7.674 26.555,7.530 L24.469,5.443 C24.324,5.299 24.91,5.300 23.947,5.443 L23.373,6.18 C22.405,6.986 21.19,7.263 19.755,6.737 C18.491,6.214 17.706,5.39 17.706,3.670 L17.706,2.858 C17.706,2.655 17.540,2.490 17.337,2.490 L14.386,2.490 C14.182,2.490 14.17,2.655 14.17,2.858 L14.17,3.670 C14.17,5.39 13.231,6.214 11.968,6.737 C10.702,7.260 9.317,6.985 8.349,6.18 L7.775,5.443 C7.632,5.299 7.398,5.300 7.254,5.443 L5.167,7.530 C5.23,7.674 5.23,7.908 5.167,8.52 L5.741,8.626 C6.708,9.593 6.984,10.979 6.461,12.244 C5.937,13.508 4.762,14.294 3.394,14.294 L2.582,14.294 C2.378,14.294 2.213,14.459 2.213,14.662 L2.213,17.613 C2.213,17.817 2.378,17.982 2.582,17.982 L3.394,17.982 C4.762,17.982 5.937,18.768 6.461,20.32 C6.984,21.296 6.708,22.683 5.741,23.649 L5.167,24.224 C5.23,24.368 5.23,24.601 5.167,24.745 L7.254,26.832 C7.398,26.976 7.631,26.975 7.775,26.832 L8.349,26.258 C8.993,25.615 9.821,25.277 10.676,25.277 C11.107,25.277 11.543,25.363 11.967,25.538 C13.231,26.61 14.17,27.237 14.17,28.605 L14.17,29.417 C14.17,29.621 14.182,29.786 14.386,29.786 L17.337,29.786 C17.540,29.786 17.706,29.621 17.706,29.417 L17.706,28.605 C17.706,27.237 18.491,26.61 19.755,25.538 C21.21,25.15 22.406,25.291 23.373,26.258 L23.946,26.831 C24.91,26.975 24.325,26.976 24.469,26.832 L26.555,24.745 C26.699,24.601 26.699,24.368 26.555,24.224 L25.981,23.649 C25.14,22.683 24.738,21.296 25.261,20.32 C25.785,18.768 26.960,17.982 28.329,17.982 L29.141,17.982 C29.344,17.982 29.509,17.817 29.509,17.613 L29.509,14.662 ZM15.861,22.409 C12.403,22.409 9.590,19.595 9.590,16.138 C9.590,12.680 12.403,9.867 15.861,9.867 C19.319,9.867 22.132,12.680 22.132,16.138 C22.132,19.595 19.319,22.409 15.861,22.409 ZM15.861,12.80 C13.624,12.80 11.804,13.901 11.804,16.138 C11.804,18.375 13.624,20.195 15.861,20.195 C18.99,20.195 19.919,18.375 19.919,16.138 C19.919,13.901 18.99,12.80 15.861,12.80 Z"/>
</svg>