<svg xmlns="http://www.w3.org/2000/svg" xlink="http://www.w3.org/1999/xlink" width="0" height="0" style="display:none;"><symbol viewBox="0 0 24 24" id="bold"><path fill="none" d="M0 0h24v24H0z"/><path d="M8 11h4.5a2.5 2.5 0 1 0 0-5H8v5zm10 4.5a4.5 4.5 0 0 1-4.5 4.5H6V4h6.5a4.5 4.5 0 0 1 3.256 7.606A4.498 4.498 0 0 1 18 15.5zM8 13v5h5.5a2.5 2.5 0 1 0 0-5H8z"/></symbol><symbol viewBox="0 0 24 24" id="italic"><path fill="none" d="M0 0h24v24H0z"/><path d="M15 20H7v-2h2.927l2.116-12H9V4h8v2h-2.927l-2.116 12H15z"/></symbol><symbol viewBox="0 0 24 24" id="heading"><path fill="none" d="M0 0h24v24H0z"/><path d="M17 11V4h2v17h-2v-8H7v8H5V4h2v7z"/></symbol><symbol viewBox="0 0 24 24" id="underline"><path fill="none" d="M0 0h24v24H0z"/><path d="M8 3v9a4 4 0 1 0 8 0V3h2v9a6 6 0 1 1-12 0V3h2zM4 20h16v2H4v-2z"/></symbol><symbol viewBox="0 0 24 24" id="list-ordered"><path fill="none" d="M0 0h24v24H0z"/><path d="M8 4h13v2H8V4zM5 3v3h1v1H3V6h1V4H3V3h2zM3 14v-2.5h2V11H3v-1h3v2.5H4v.5h2v1H3zm2 5.5H3v-1h2V18H3v-1h3v4H3v-1h2v-.5zM8 11h13v2H8v-2zm0 7h13v2H8v-2z"/></symbol><symbol viewBox="0 0 24 24" id="list-unordered"><path fill="none" d="M0 0h24v24H0z"/><path d="M8 4h13v2H8V4zM4.5 6.5a1.5 1.5 0 1 1 0-3 1.5 1.5 0 0 1 0 3zm0 7a1.5 1.5 0 1 1 0-3 1.5 1.5 0 0 1 0 3zm0 6.9a1.5 1.5 0 1 1 0-3 1.5 1.5 0 0 1 0 3zM8 11h13v2H8v-2zm0 7h13v2H8v-2z"/></symbol><symbol viewBox="0 0 24 24" id="link"><path fill="none" d="M0 0h24v24H0z"/><path d="M18.364 15.536L16.95 14.12l1.414-1.414a5 5 0 1 0-7.071-7.071L9.879 7.05 8.464 5.636 9.88 4.222a7 7 0 0 1 9.9 9.9l-1.415 1.414zm-2.828 2.828l-1.415 1.414a7 7 0 0 1-9.9-9.9l1.415-1.414L7.05 9.88l-1.414 1.414a5 5 0 1 0 7.071 7.071l1.414-1.414 1.415 1.414zm-.708-10.607l1.415 1.415-7.071 7.07-1.415-1.414 7.071-7.07z"/></symbol><symbol viewBox="0 0 24 24" id="table-2"><path fill="none" d="M0 0h24v24H0z"/><path d="M13 10v4h6v-4h-6zm-2 0H5v4h6v-4zm2 9h6v-3h-6v3zm-2 0v-3H5v3h6zm2-14v3h6V5h-6zm-2 0H5v3h6V5zM4 3h16a1 1 0 0 1 1 1v16a1 1 0 0 1-1 1H4a1 1 0 0 1-1-1V4a1 1 0 0 1 1-1z"/></symbol><symbol viewBox="0 0 24 24" id="code-view"><path fill="none" d="M0 0h24v24H0z"/><path d="M16.95 8.464l1.414-1.414 4.95 4.95-4.95 4.95-1.414-1.414L20.485 12 16.95 8.464zm-9.9 0L3.515 12l3.535 3.536-1.414 1.414L.686 12l4.95-4.95L7.05 8.464z"/></symbol><symbol viewBox="0 0 24 24" id="h-1"><path fill="none" d="M0 0H24V24H0z"/><path d="M13 20h-2v-7H4v7H2V4h2v7h7V4h2v16zm8-12v12h-2v-9.796l-2 .536V8.67L19.5 8H21z"/></symbol><symbol viewBox="0 0 24 24" id="h-2"><path fill="none" d="M0 0H24V24H0z"/><path d="M4 4v7h7V4h2v16h-2v-7H4v7H2V4h2zm14.5 4c2.071 0 3.75 1.679 3.75 3.75 0 .857-.288 1.648-.772 2.28l-.148.18L18.034 18H22v2h-7v-1.556l4.82-5.546c.268-.307.43-.709.43-1.148 0-.966-.784-1.75-1.75-1.75-.918 0-1.671.707-1.744 1.606l-.006.144h-2C14.75 9.679 16.429 8 18.5 8z"/></symbol><symbol viewBox="0 0 24 24" id="h-3"><path fill="none" d="M0 0H24V24H0z"/><path d="M22 8l-.002 2-2.505 2.883c1.59.435 2.757 1.89 2.757 3.617 0 2.071-1.679 3.75-3.75 3.75-1.826 0-3.347-1.305-3.682-3.033l1.964-.382c.156.806.866 1.415 1.718 1.415.966 0 1.75-.784 1.75-1.75s-.784-1.75-1.75-1.75c-.286 0-.556.069-.794.19l-1.307-1.547L19.35 10H15V8h7zM4 4v7h7V4h2v16h-2v-7H4v7H2V4h2z"/></symbol><symbol viewBox="0 0 24 24" id="h-4"><path fill="none" d="M0 0H24V24H0z"/><path d="M13 20h-2v-7H4v7H2V4h2v7h7V4h2v16zm9-12v8h1.5v2H22v2h-2v-2h-5.5v-1.34l5-8.66H22zm-2 3.133L17.19 16H20v-4.867z"/></symbol><symbol viewBox="0 0 24 24" id="h-5"><path fill="none" d="M0 0H24V24H0z"/><path d="M22 8v2h-4.323l-.464 2.636c.33-.089.678-.136 1.037-.136 2.21 0 4 1.79 4 4s-1.79 4-4 4c-1.827 0-3.367-1.224-3.846-2.897l1.923-.551c.24.836 1.01 1.448 1.923 1.448 1.105 0 2-.895 2-2s-.895-2-2-2c-.63 0-1.193.292-1.56.748l-1.81-.904L16 8h6zM4 4v7h7V4h2v16h-2v-7H4v7H2V4h2z"/></symbol><symbol viewBox="0 0 24 24" id="h-6"><path fill="none" d="M0 0H24V24H0z"/><path d="M21.097 8l-2.598 4.5c2.21 0 4.001 1.79 4.001 4s-1.79 4-4 4-4-1.79-4-4c0-.736.199-1.426.546-2.019L18.788 8h2.309zM4 4v7h7V4h2v16h-2v-7H4v7H2V4h2zm14.5 10.5c-1.105 0-2 .895-2 2s.895 2 2 2 2-.895 2-2-.895-2-2-2z"/></symbol><symbol viewBox="0 0 24 24" id="separator"><path fill="none" d="M0 0h24v24H0z"/><path d="M2 11h2v2H2v-2zm4 0h12v2H6v-2zm14 0h2v2h-2v-2z"/></symbol><symbol viewBox="0 0 24 24" id="image-line"><path fill="none" d="M0 0h24v24H0z"/><path d="M4.828 21l-.02.02-.021-.02H2.992A.993.993 0 0 1 2 20.007V3.993A1 1 0 0 1 2.992 3h18.016c.548 0 .992.445.992.993v16.014a1 1 0 0 1-.992.993H4.828zM20 15V5H4v14L14 9l6 6zm0 2.828l-6-6L6.828 19H20v-1.172zM8 11a2 2 0 1 1 0-4 2 2 0 0 1 0 4z"/></symbol><symbol viewBox="0 0 24 24" id="side-bar-line"><path fill="none" d="M0 0h24v24H0z"/><path d="M3 3h18a1 1 0 0 1 1 1v16a1 1 0 0 1-1 1H3a1 1 0 0 1-1-1V4a1 1 0 0 1 1-1zm5 2H4v14h4V5zm2 0v14h10V5H10z"/></symbol><symbol viewBox="0 0 24 24" id="side-bar-fill"><path fill="none" d="M0 0h24v24H0z"/><path d="M3 3h18a1 1 0 0 1 1 1v16a1 1 0 0 1-1 1H3a1 1 0 0 1-1-1V4a1 1 0 0 1 1-1zm6 2v14h11V5H9z"/></symbol><symbol viewBox="0 0 24 24" id="folder-add-fill"><path fill="none" d="M0 0h24v24H0z"/><path d="M12.414 5H21a1 1 0 0 1 1 1v14a1 1 0 0 1-1 1H3a1 1 0 0 1-1-1V4a1 1 0 0 1 1-1h7.414l2 2zM11 12H8v2h3v3h2v-3h3v-2h-3V9h-2v3z"/></symbol><symbol viewBox="0 0 24 24" id="image-add-line"><path fill="none" d="M0 0h24v24H0z"/><path d="M21 15v3h3v2h-3v3h-2v-3h-3v-2h3v-3h2zm.008-12c.548 0 .992.445.992.993V13h-2V5H4v13.999L14 9l3 3v2.829l-3-3L6.827 19H14v2H2.992A.993.993 0 0 1 2 20.007V3.993A1 1 0 0 1 2.992 3h18.016zM8 7a2 2 0 1 1 0 4 2 2 0 0 1 0-4z"/></symbol><symbol viewBox="0 0 24 24" id="qr-code-line"><path fill="none" d="M0 0h24v24H0z"/><path d="M16 17v-1h-3v-3h3v2h2v2h-1v2h-2v2h-2v-3h2v-1h1zm5 4h-4v-2h2v-2h2v4zM3 3h8v8H3V3zm2 2v4h4V5H5zm8-2h8v8h-8V3zm2 2v4h4V5h-4zM3 13h8v8H3v-8zm2 2v4h4v-4H5zm13-2h3v2h-3v-2zM6 6h2v2H6V6zm0 10h2v2H6v-2zM16 6h2v2h-2V6z"/></symbol><symbol viewBox="0 0 24 24" id="qr-scan-line"><path fill="none" d="M0 0h24v24H0z"/><path d="M21 16v5H3v-5h2v3h14v-3h2zM3 11h18v2H3v-2zm18-3h-2V5H5v3H3V3h18v5z"/></symbol><symbol viewBox="0 0 24 24" id="question-line"><path fill="none" d="M0 0h24v24H0z"/><path d="M12 22C6.477 22 2 17.523 2 12S6.477 2 12 2s10 4.477 10 10-4.477 10-10 10zm0-2a8 8 0 1 0 0-16 8 8 0 0 0 0 16zm-1-5h2v2h-2v-2zm2-1.645V14h-2v-1.5a1 1 0 0 1 1-1 1.5 1.5 0 1 0-1.471-1.794l-1.962-.393A3.501 3.501 0 1 1 13 13.355z"/></symbol><symbol viewBox="0 0 24 24" id="alert-line"><path fill="none" d="M0 0h24v24H0z"/><path d="M12.866 3l9.526 16.5a1 1 0 0 1-.866 1.5H2.474a1 1 0 0 1-.866-1.5L11.134 3a1 1 0 0 1 1.732 0zm-8.66 16h15.588L12 5.5 4.206 19zM11 16h2v2h-2v-2zm0-7h2v5h-2V9z"/></symbol><symbol viewBox="0 0 24 24" id="add-box-line"><path fill="none" d="M0 0h24v24H0z"/><path d="M4 3h16a1 1 0 0 1 1 1v16a1 1 0 0 1-1 1H4a1 1 0 0 1-1-1V4a1 1 0 0 1 1-1zm1 2v14h14V5H5zm6 6V7h2v4h4v2h-4v4h-2v-4H7v-2h4z"/></symbol><symbol viewBox="0 0 24 24" id="arrow-go-back-line"><path fill="none" d="M0 0h24v24H0z"/><path d="M5.828 7l2.536 2.536L6.95 10.95 2 6l4.95-4.95 1.414 1.414L5.828 5H13a8 8 0 1 1 0 16H4v-2h9a6 6 0 1 0 0-12H5.828z"/></symbol><symbol viewBox="0 0 24 24" id="arrow-go-forward-line"><path fill="none" d="M0 0h24v24H0z"/><path d="M18.172 7H11a6 6 0 1 0 0 12h9v2h-9a8 8 0 1 1 0-16h7.172l-2.536-2.536L17.05 1.05 22 6l-4.95 4.95-1.414-1.414L18.172 7z"/></symbol><symbol viewBox="0 0 24 24" id="refresh-line"><path fill="none" d="M0 0h24v24H0z"/><path d="M5.463 4.433A9.961 9.961 0 0 1 12 2c5.523 0 10 4.477 10 10 0 2.136-.67 4.116-1.81 5.74L17 12h3A8 8 0 0 0 6.46 6.228l-.997-1.795zm13.074 15.134A9.961 9.961 0 0 1 12 22C6.477 22 2 17.523 2 12c0-2.136.67-4.116 1.81-5.74L7 12H4a8 8 0 0 0 13.54 5.772l.997 1.795z"/></symbol><symbol viewBox="0 0 24 24" id="search-line"><path fill="none" d="M0 0h24v24H0z"/><path d="M18.031 16.617l4.283 4.282-1.415 1.415-4.282-4.283A8.96 8.96 0 0 1 11 20c-4.968 0-9-4.032-9-9s4.032-9 9-9 9 4.032 9 9a8.96 8.96 0 0 1-1.969 5.617zm-2.006-.742A6.977 6.977 0 0 0 18 11c0-3.868-3.133-7-7-7-3.868 0-7 3.132-7 7 0 3.867 3.132 7 7 7a6.977 6.977 0 0 0 4.875-1.975l.15-.15z"/></symbol><symbol viewBox="0 0 24 24" id="share-line"><path fill="none" d="M0 0h24v24H0z"/><path d="M13.12 17.023l-4.199-2.29a4 4 0 1 1 0-5.465l4.2-2.29a4 4 0 1 1 .959 1.755l-4.2 2.29a4.008 4.008 0 0 1 0 1.954l4.199 2.29a4 4 0 1 1-.959 1.755zM6 14a2 2 0 1 0 0-4 2 2 0 0 0 0 4zm11-6a2 2 0 1 0 0-4 2 2 0 0 0 0 4zm0 12a2 2 0 1 0 0-4 2 2 0 0 0 0 4z"/></symbol><symbol viewBox="0 0 24 24" id="external-link-line"><path fill="none" d="M0 0h24v24H0z"/><path d="M10 6v2H5v11h11v-5h2v6a1 1 0 0 1-1 1H4a1 1 0 0 1-1-1V7a1 1 0 0 1 1-1h6zm11-3v8h-2V6.413l-7.793 7.794-1.414-1.414L17.585 5H13V3h8z"/></symbol><symbol viewBox="0 0 24 24" id="group-line"><path fill="none" d="M0 0h24v24H0z"/><path d="M2 22a8 8 0 1 1 16 0h-2a6 6 0 1 0-12 0H2zm8-9c-3.315 0-6-2.685-6-6s2.685-6 6-6 6 2.685 6 6-2.685 6-6 6zm0-2c2.21 0 4-1.79 4-4s-1.79-4-4-4-4 1.79-4 4 1.79 4 4 4zm8.284 3.703A8.002 8.002 0 0 1 23 22h-2a6.001 6.001 0 0 0-3.537-5.473l.82-1.824zm-.688-11.29A5.5 5.5 0 0 1 21 8.5a5.499 5.499 0 0 1-5 5.478v-2.013a3.5 3.5 0 0 0 1.041-6.609l.555-1.943z"/></symbol><symbol viewBox="0 0 24 24" id="keyboard-line"><path fill="none" d="M0 0h24v24H0z"/><path d="M3 17h18v2H3v-2zm0-6h3v3H3v-3zm5 0h3v3H8v-3zM3 5h3v3H3V5zm10 0h3v3h-3V5zm5 0h3v3h-3V5zm-5 6h3v3h-3v-3zm5 0h3v3h-3v-3zM8 5h3v3H8V5z"/></symbol><symbol viewBox="0 0 24 24" id="file-copy-line"><path fill="none" d="M0 0h24v24H0z"/><path d="M7 6V3a1 1 0 0 1 1-1h12a1 1 0 0 1 1 1v14a1 1 0 0 1-1 1h-3v3c0 .552-.45 1-1.007 1H4.007A1.001 1.001 0 0 1 3 21l.003-14c0-.552.45-1 1.007-1H7zM5.003 8L5 20h10V8H5.003zM9 6h8v10h2V4H9v2z"/></symbol><symbol viewBox="0 0 24 24" id="book-line"><path fill="none" d="M0 0h24v24H0z"/><path d="M3 18.5V5a3 3 0 0 1 3-3h14a1 1 0 0 1 1 1v18a1 1 0 0 1-1 1H6.5A3.5 3.5 0 0 1 3 18.5zM19 20v-3H6.5a1.5 1.5 0 0 0 0 3H19zM5 15.337A3.486 3.486 0 0 1 6.5 15H19V4H6a1 1 0 0 0-1 1v10.337z"/></symbol><symbol viewBox="0 0 24 24" id="rest-time-line"><path fill="none" d="M0 0H24V24H0z"/><path d="M11 6v2c-3.314 0-6 2.686-6 6s2.686 6 6 6c3.238 0 5.878-2.566 5.996-5.775L17 14h2c0 4.418-3.582 8-8 8s-8-3.582-8-8c0-4.335 3.58-8 8-8zm10-4v2l-5.327 6H21v2h-8v-2l5.326-6H13V2h8z"/></symbol><symbol viewBox="0 0 24 24" id="reactjs-fill"><path fill="none" d="M0 0h24v24H0z"/><path d="M14.448 16.24a21.877 21.877 0 0 1-1.747 2.175c1.672 1.623 3.228 2.383 4.09 1.884.864-.498.983-2.225.414-4.484-.853.19-1.78.334-2.757.425zm-1.31.087a27.512 27.512 0 0 1-2.276 0c.377.492.758.948 1.138 1.364.38-.416.76-.872 1.138-1.364zm5.04-7.894c2.665.764 4.405 2.034 4.405 3.567 0 1.533-1.74 2.803-4.405 3.567.67 2.69.441 4.832-.886 5.598-1.328.767-3.298-.105-5.292-2.03-1.994 1.925-3.964 2.797-5.292 2.03-1.327-.766-1.557-2.908-.886-5.598-2.665-.764-4.405-2.034-4.405-3.567 0-1.533 1.74-2.803 4.405-3.567-.67-2.69-.441-4.832.886-5.598 1.328-.767 3.298.105 5.292 2.03 1.994-1.925 3.964-2.797 5.292-2.03 1.327.766 1.557 2.908.886 5.598zm-.973-.248c.57-2.26.45-3.986-.413-4.484-.863-.499-2.419.261-4.09 1.884.591.643 1.179 1.374 1.746 2.175.978.09 1.904.234 2.757.425zm-10.41 7.63c-.57 2.26-.45 3.986.413 4.484.863.499 2.419-.261 4.09-1.884a21.877 21.877 0 0 1-1.746-2.175 21.877 21.877 0 0 1-2.757-.425zm4.067-8.142a27.512 27.512 0 0 1 2.276 0A20.523 20.523 0 0 0 12 6.31c-.38.416-.76.872-1.138 1.364zm-1.31.087A21.877 21.877 0 0 1 11.3 5.585C9.627 3.962 8.07 3.202 7.209 3.701c-.864.498-.983 2.225-.414 4.484.853-.19 1.78-.334 2.757-.425zm4.342 7.52A25.368 25.368 0 0 0 15.787 12a25.368 25.368 0 0 0-1.893-3.28 25.368 25.368 0 0 0-3.788 0A25.368 25.368 0 0 0 8.213 12a25.368 25.368 0 0 0 1.893 3.28 25.368 25.368 0 0 0 3.788 0zm1.284-.131c.615-.08 1.2-.183 1.75-.304a20.523 20.523 0 0 0-.612-1.667 27.512 27.512 0 0 1-1.138 1.97zM8.822 8.85c-.615.08-1.2.183-1.75.304.17.536.374 1.094.612 1.667a27.512 27.512 0 0 1 1.138-1.97zm-1.75 5.994c.55.121 1.135.223 1.75.304a27.512 27.512 0 0 1-1.138-1.97c-.238.572-.442 1.13-.612 1.666zm-.978-.245c.261-.834.6-1.708 1.01-2.6-.41-.892-.749-1.766-1.01-2.6-2.242.637-3.677 1.604-3.677 2.6s1.435 1.963 3.677 2.6zm10.834-5.445c-.55-.121-1.135-.223-1.75-.304a27.511 27.511 0 0 1 1.138 1.97c.238-.572.442-1.13.612-1.666zm.978.245c-.261.834-.6 1.708-1.01 2.6.41.892.749 1.766 1.01 2.6 2.242-.637 3.677-1.604 3.677-2.6s-1.435-1.963-3.677-2.6zM12 13.88a1.88 1.88 0 1 1 0-3.76 1.88 1.88 0 0 1 0 3.76z"/></symbol><symbol viewBox="0 0 24 24" id="fullscreen-line"><path fill="none" d="M0 0h24v24H0z"/><path d="M20 3h2v6h-2V5h-4V3h4zM4 3h4v2H4v4H2V3h2zm16 16v-4h2v6h-6v-2h4zM4 19h4v2H2v-6h2v4z"/></symbol><symbol viewBox="0 0 24 24" id="settings-3-line"><path fill="none" d="M0 0h24v24H0z"/><path d="M3.34 17a10.018 10.018 0 0 1-.978-2.326 3 3 0 0 0 .002-5.347A9.99 9.99 0 0 1 4.865 4.99a3 3 0 0 0 4.631-2.674 9.99 9.99 0 0 1 5.007.002 3 3 0 0 0 4.632 2.672c.579.59 1.093 1.261 1.525 2.01.433.749.757 1.53.978 2.326a3 3 0 0 0-.002 5.347 9.99 9.99 0 0 1-2.501 4.337 3 3 0 0 0-4.631 2.674 9.99 9.99 0 0 1-5.007-.002 3 3 0 0 0-4.632-2.672A10.018 10.018 0 0 1 3.34 17zm5.66.196a4.993 4.993 0 0 1 2.25 2.77c.499.047 1 .048 1.499.001A4.993 4.993 0 0 1 15 17.197a4.993 4.993 0 0 1 3.525-.565c.29-.408.54-.843.748-1.298A4.993 4.993 0 0 1 18 12c0-1.26.47-2.437 1.273-3.334a8.126 8.126 0 0 0-.75-1.298A4.993 4.993 0 0 1 15 6.804a4.993 4.993 0 0 1-2.25-2.77c-.499-.047-1-.048-1.499-.001A4.993 4.993 0 0 1 9 6.803a4.993 4.993 0 0 1-3.525.565 7.99 7.99 0 0 0-.748 1.298A4.993 4.993 0 0 1 6 12c0 1.26-.47 2.437-1.273 3.334a8.126 8.126 0 0 0 .75 1.298A4.993 4.993 0 0 1 9 17.196zM12 15a3 3 0 1 1 0-6 3 3 0 0 1 0 6zm0-2a1 1 0 1 0 0-2 1 1 0 0 0 0 2z"/></symbol></svg>