<?xml version="1.0" encoding="utf-8"?>
<svg 
 xmlns="http://www.w3.org/2000/svg"
 xmlns:xlink="http://www.w3.org/1999/xlink"
 width="20px" height="20px">
<path fill-rule="evenodd"  fill="rgb(146, 184, 255)"
 d="M15.615,9.478 L10.758,9.478 L10.758,4.644 C10.758,2.292 12.680,0.378 15.43,0.378 L15.615,0.378 C17.977,0.378 19.900,2.292 19.900,4.644 L19.900,5.213 C19.900,7.565 17.977,9.478 15.615,9.478 ZM19.329,4.644 C19.329,2.605 17.663,0.947 15.615,0.947 L15.43,0.947 C12.995,0.947 11.329,2.605 11.329,4.644 L11.329,8.910 L15.615,8.910 C17.663,8.910 19.329,7.251 19.329,5.213 L19.329,4.644 ZM15.232,10.900 C17.752,10.900 19.802,12.941 19.802,15.449 C19.802,17.958 17.752,19.999 15.232,19.999 C12.711,19.999 10.661,17.958 10.661,15.449 C10.661,12.941 12.711,10.900 15.232,10.900 ZM15.232,19.431 C17.437,19.431 19.231,17.645 19.231,15.449 C19.231,13.254 17.437,11.468 15.232,11.468 C13.26,11.468 11.232,13.254 11.232,15.449 C11.232,17.645 13.26,19.431 15.232,19.431 ZM5.2,19.878 L4.431,19.878 C2.68,19.878 0.146,17.965 0.146,15.613 L0.146,15.44 C0.146,12.692 2.68,10.778 4.431,10.778 L9.288,10.778 L9.288,15.613 C9.288,17.965 7.365,19.878 5.2,19.878 ZM8.716,11.347 L4.431,11.347 C2.383,11.347 0.717,13.6 0.717,15.44 L0.717,15.613 C0.717,17.651 2.383,19.310 4.431,19.310 L5.2,19.310 C7.50,19.310 8.716,17.651 8.716,15.613 L8.716,11.347 ZM0.2,5.218 L0.2,4.649 C0.2,2.297 1.919,0.383 4.282,0.383 L4.854,0.383 C7.217,0.383 9.139,2.297 9.139,4.649 L9.139,9.483 L4.282,9.483 C1.919,9.483 0.2,7.570 0.2,5.218 ZM8.567,4.649 C8.567,2.610 6.902,0.952 4.854,0.952 L4.282,0.952 C2.234,0.952 0.568,2.610 0.568,4.649 L0.568,5.218 C0.568,7.256 2.234,8.914 4.282,8.914 L8.567,8.914 L8.567,4.649 Z"/>
</svg>