<?xml version="1.0" encoding="utf-8"?>
<svg width="32" height="32" viewBox="0 0 1024 1024" version="1.1" xmlns="http://www.w3.org/2000/svg">
  <path d="M 495.552 250.688 C 486.114 250.661 477.063 246.94 470.336 240.32 L 395.52 167.168 C 388.783 160.572 379.732 156.874 370.304 156.864 L 201.984 156.864 C 161.664 156.864 128.896 190.464 128.896 231.936 L 128.896 794.944 C 128.896 836.416 161.664 869.952 201.984 869.952 L 807.424 869.952 C 868.48 869.952 896.896 852.416 896.896 794.944 L 896.896 326.72 C 896.896 274.752 871.552 250.688 807.424 250.688 L 495.552 250.688 Z M 507.008 186.688 L 807.424 186.688 C 904 186.688 960.896 236.352 960.896 326.72 L 960.896 794.944 C 960.896 889.28 903.936 933.952 807.424 933.952 L 201.984 933.952 C 125.952 933.952 64.896 871.36 64.896 794.944 L 64.896 231.936 C 64.896 155.52 125.952 92.864 201.984 92.864 L 370.304 92.864 C 396.48 92.864 421.504 103.104 440.256 121.408 L 507.008 186.688 Z" fill="#8A8C8D"/>
</svg>