<?xml version="1.0" encoding="utf-8"?>
<svg 
 xmlns="http://www.w3.org/2000/svg"
 xmlns:xlink="http://www.w3.org/1999/xlink"
 width="27px" height="33px">
<path fill-rule="evenodd"  fill="rgb(102, 102, 102)"
 d="M23.136,33.0 L3.203,33.0 C1.437,33.0 0.0,31.562 0.0,29.796 L0.0,4.168 C0.0,2.401 1.437,0.964 3.203,0.964 L23.136,0.964 C24.902,0.964 26.339,2.401 26.339,4.168 L26.339,29.796 C26.339,31.562 24.902,33.0 23.136,33.0 ZM24.204,4.168 C24.204,3.579 23.725,3.100 23.136,3.100 L3.203,3.100 C2.614,3.100 2.135,3.579 2.135,4.168 L2.135,29.796 C2.135,30.385 2.614,30.864 3.203,30.864 L23.136,30.864 C23.725,30.864 24.204,30.385 24.204,29.796 L24.204,4.168 ZM5.441,7.168 L20.898,7.168 L20.898,26.795 L5.441,26.795 L5.441,7.168 ZM6.865,25.372 L19.474,25.372 L19.474,8.592 L6.865,8.592 L6.865,25.372 ZM15.696,5.738 L10.1,5.738 C9.608,5.738 9.289,5.420 9.289,5.26 C9.289,4.633 9.608,4.315 10.1,4.315 L15.696,4.315 C16.89,4.315 16.408,4.633 16.408,5.26 C16.408,5.420 16.89,5.738 15.696,5.738 ZM13.860,27.579 C14.646,27.579 15.284,28.216 15.284,29.3 C15.284,29.789 14.646,30.426 13.860,30.426 C13.74,30.426 12.436,29.789 12.436,29.3 C12.436,28.216 13.74,27.579 13.860,27.579 Z"/>
</svg>