<?xml version="1.0" encoding="UTF-8"?>
<svg width="32" height="32" viewBox="0 0 1024 1024" version="1.1" xmlns="http://www.w3.org/2000/svg" xmlns:xlink="http://www.w3.org/1999/xlink">
    <path d="M495.552 250.688a36.096 36.096 0 0 1-25.216-10.368L395.52 167.168a36.096 36.096 0 0 0-25.216-10.304h-168.32c-40.32 0-73.088 33.6-73.088 75.072v563.008c0 41.472 32.768 75.008 73.088 75.008h605.44c61.056 0 89.472-17.536 89.472-75.008V326.72c0-51.968-25.344-76.032-89.472-76.032H495.552z m-14.08 290.176h-128a32 32 0 0 0-32.576 32c0 17.152 14.592 32 32.64 32h127.936v134.016a32 32 0 0 0 32 32.576 32.64 32.64 0 0 0 32-32.576V604.864h140.736a32 32 0 0 0 32.512-32 32.64 32.64 0 0 0-32.512-32H545.472V406.208a32 32 0 0 0-32-32.576 32.64 32.64 0 0 0-32 32.576V540.8z m25.536-354.176h300.416c96.576 0 153.472 49.664 153.472 140.032v468.224c0 94.336-56.96 139.008-153.472 139.008h-605.44c-76.032 0-137.088-62.592-137.088-139.008V231.936c0-76.416 61.056-139.072 137.088-139.072h168.32c26.176 0 51.2 10.24 69.952 28.544l66.752 65.28z" fill="#8A8C8D">
    </path>
</svg>