<?xml version="1.0" encoding="UTF-8"?>
<svg 
 xmlns="http://www.w3.org/2000/svg"
 xmlns:xlink="http://www.w3.org/1999/xlink"
 width="20px" height="18px">
<path fill-rule="evenodd"  opacity="0.502" fill="rgb(255, 255, 255)"
 d="M17.910,3.720 L8.955,3.720 C8.505,3.720 8.141,3.367 8.141,2.932 L8.141,2.67 C8.141,1.197 7.412,0.492 6.512,0.492 L1.628,0.492 C0.728,0.492 0.0,1.197 0.0,2.67 L0.0,5.295 L0.0,6.791 L0.0,15.924 C0.0,16.794 0.728,17.499 1.628,17.499 L17.910,17.499 C18.809,17.499 19.538,16.794 19.538,15.924 L19.538,5.295 C19.538,4.425 18.809,3.720 17.910,3.720 ZM12.822,11.358 L10.583,11.358 L10.583,13.523 C10.583,13.958 10.219,14.311 9.769,14.311 C9.319,14.311 8.955,13.958 8.955,13.523 L8.955,11.358 L6.716,11.358 C6.266,11.358 5.902,11.5 5.902,10.570 C5.902,10.136 6.266,9.783 6.716,9.783 L8.955,9.783 L8.955,7.618 C8.955,7.183 9.319,6.830 9.769,6.830 C10.219,6.830 10.583,7.183 10.583,7.618 L10.583,9.783 L12.822,9.783 C13.271,9.783 13.636,10.136 13.636,10.570 C13.636,11.5 13.271,11.358 12.822,11.358 Z"/>
</svg>