<svg 
 xmlns="http://www.w3.org/2000/svg"
 viewBox="0 0 25 30">
<path fill-rule="evenodd"  fill="#8A8C8D"
 d="M24.275,27.213 L12.923,27.213 C12.619,27.213 12.374,26.972 12.374,26.674 C12.374,26.376 12.619,26.135 12.923,26.135 L24.275,26.135 C24.578,26.135 24.824,26.376 24.824,26.674 C24.824,26.972 24.578,27.213 24.275,27.213 ZM8.666,26.440 C8.524,26.703 8.193,26.804 7.924,26.665 C7.656,26.526 7.553,26.200 7.695,25.937 L18.885,5.126 C19.22,4.871 19.50,4.580 18.963,4.304 C18.877,4.29 18.686,3.804 18.427,3.669 L15.513,2.159 C14.977,1.882 14.312,2.83 14.29,2.609 L2.64,24.859 L2.714,28.884 L24.285,28.884 C24.588,28.884 24.834,29.126 24.834,29.424 C24.834,29.721 24.588,29.963 24.285,29.963 L2.318,29.963 C2.170,29.963 2.36,29.904 1.937,29.810 C1.816,29.729 1.720,29.616 1.695,29.463 L0.979,25.28 C0.943,24.799 0.983,24.560 1.93,24.355 L13.57,2.106 C13.623,1.55 14.955,0.651 16.25,1.206 L18.940,2.716 C20.11,3.271 20.422,4.578 19.857,5.630 L8.666,26.440 Z"/>
</svg>