<?xml version="1.0" encoding="UTF-8"?>
<svg width="33.5" height="32" viewBox="0 0 1072 1024" version="1.1" xmlns="http://www.w3.org/2000/svg" xmlns:xlink="http://www.w3.org/1999/xlink" >
    <path d="M1027.614118 95.171765L959.347451 27.708235A82.723137 82.723137 0 0 0 843.294118 21.283137l-481.882353 481.882353a90.75451 90.75451 0 0 0-24.094118 42.967843l-67.865098 200.784314a32.12549 32.12549 0 0 0 5.621961 30.117647l2.81098 3.614118 2.810981 2.409412a32.12549 32.12549 0 0 0 30.519215 6.826666L522.039216 722.823529h2.81098a90.75451 90.75451 0 0 0 34.133333-21.283137l481.882353-487.905882c32.928627-34.936471 16.062745-85.534118-13.251764-118.462745zM374.261961 634.478431l49.79451 48.188236-74.691765 22.889411z m145.367843 18.873726a16.865882 16.865882 0 0 1-23.692549 0l-88.746667-88.746667a16.865882 16.865882 0 0 1 0-24.094117l374.66353-374.66353 112.439215 112.439216zM976.213333 197.170196l-36.542745 36.542745L827.231373 120.470588l33.731764-33.731764a46.581961 46.581961 0 0 1 65.857255 0l49.79451 49.794509a42.566275 42.566275 0 0 1-0.401569 60.636863z" p-id="5893" fill="#8A8C8D"></path><path d="M1072.188235 421.647059a34.133333 34.133333 0 0 0-68.668235 0v490.315294a42.967843 42.967843 0 0 1-42.967843 42.967843H111.23451a42.967843 42.967843 0 0 1-42.967843-42.967843V114.04549c0-23.692549 19.275294-30.117647 42.967843-30.117647h517.621961a34.133333 34.133333 0 1 0 0-68.668235h-522.039216A95.171765 95.171765 0 0 0 0 107.620392v811.168628a105.21098 105.21098 0 0 0 104.809412 105.21098h862.569412a105.21098 105.21098 0 0 0 104.809411-104.809412V422.048627z" fill="#8A8C8D">
    </path>
</svg>