<?xml version="1.0" encoding="utf-8"?>
<svg 
 xmlns="http://www.w3.org/2000/svg"
 xmlns:xlink="http://www.w3.org/1999/xlink"
 width="26px" height="33px">
<path fill-rule="evenodd"  fill="rgb(102, 102, 102)"
 d="M24.682,6.749 L1.42,6.749 C0.466,6.749 0.0,6.286 0.0,5.715 C0.0,5.144 0.466,4.681 1.42,4.681 L8.23,4.681 L8.23,3.363 C8.23,2.33 9.114,0.950 10.456,0.950 L14.628,0.950 C15.969,0.950 17.61,2.33 17.61,3.363 L17.61,4.681 L24.682,4.681 C25.258,4.681 25.725,5.144 25.725,5.715 C25.725,6.286 25.258,6.749 24.682,6.749 ZM14.975,3.363 C14.975,3.173 14.820,3.18 14.628,3.18 L10.456,3.18 C10.264,3.18 10.108,3.173 10.108,3.363 L10.108,4.681 L14.975,4.681 L14.975,3.363 ZM6.708,26.621 L6.708,12.837 C6.708,12.266 7.175,11.803 7.751,11.803 C8.327,11.803 8.794,12.266 8.794,12.837 L8.794,26.621 C8.794,27.192 8.327,27.655 7.751,27.655 C7.175,27.655 6.708,27.192 6.708,26.621 ZM12.26,26.767 L12.26,12.983 C12.26,12.412 12.493,11.949 13.69,11.949 C13.645,11.949 14.112,12.412 14.112,12.983 L14.112,26.767 C14.112,27.337 13.645,27.800 13.69,27.800 C12.493,27.800 12.26,27.337 12.26,26.767 ZM17.344,26.621 L17.344,12.837 C17.344,12.266 17.811,11.803 18.387,11.803 C18.963,11.803 19.430,12.266 19.430,12.837 L19.430,26.621 C19.430,27.192 18.963,27.655 18.387,27.655 C17.811,27.655 17.344,27.192 17.344,26.621 ZM2.433,9.514 C3.9,9.514 3.476,9.977 3.476,10.547 L3.476,29.844 C3.476,30.415 3.944,30.878 4.519,30.878 L21.206,30.878 C21.781,30.878 22.248,30.415 22.248,29.844 L22.248,10.547 C22.248,9.977 22.715,9.514 23.291,9.514 C23.867,9.514 24.334,9.977 24.334,10.547 L24.334,29.844 C24.334,31.555 22.931,32.946 21.206,32.946 L4.519,32.946 C2.794,32.946 1.390,31.555 1.390,29.844 L1.390,10.547 C1.390,9.977 1.857,9.514 2.433,9.514 Z"/>
</svg>